<svg xmlns="http://www.w3.org/2000/svg" x="0px" y="0px" width="50" height="50" viewBox="0 0 64 64">
<path fill="#49a0ae" d="M1,32C1,14.9,14.9,1,32,1s31,13.9,31,31S49.1,63,32,63S1,49.1,1,32z"></path><path fill="#dff1ed" d="M43.1,51.4c-0.7,0-1.3-0.1-1.9-0.4c-3.6-1.6-10.6-5.1-16.8-11.3S14.6,26.4,13,22.8c-0.8-1.8-0.4-3.9,1.1-5.4	l3.8-3.8c0.5-0.5,1.1-0.9,1.8-1c1-0.2,2,0.2,2.7,0.9l4.9,4.9c1.3,1.3,1.3,3.4,0,4.8l-3.9,3.9c-0.4,0.4-0.5,1-0.3,1.5	c0.7,1.5,2.3,4.6,5,7.3c2.7,2.7,5.8,4.3,7.3,5c0.5,0.2,1.1,0.1,1.5-0.3l4-4c0.5-0.5,1-0.8,1.7-0.9c1-0.2,2,0.1,2.8,0.9l5.1,5.1	c1.2,1.2,1.2,3.2,0,4.4l-3.9,3.9C45.7,50.9,44.4,51.4,43.1,51.4z"></path>
</svg>